#!OML:ASF Y:\EmotionMaleHayes\Project 1\Capture day 1\Session 1\Male1.ASF
:FULLY-SPECIFIED
:DEGREES
1152
root -16.3802 16.0726 11.8668 -528.547 -52.2099 164.927
lowerback 9.15666 0.683732 -5.49777
upperback 3.65001 0.274952 0.604881
thorax -1.36935 0.0206168 3.6954
lowerneck -21.5887 -5.41008 -1.30712
upperneck 25.5607 -12.1027 12.1986
head 13.1444 -4.19377 2.67918
rclavicle 8.54774e-015 -1.59028e-014
rhumerus -46.6008 9.64455 -88.902
rradius 62.2022
rwrist -15.9794
rhand -12.7597 -24.6467
rfingers 7.12502
rthumb 13.3249 -54.2006
lclavicle 8.54774e-015 -1.59028e-014
lhumerus -43.8419 -29.6597 96.3889
lradius 45.3037
lwrist 6.36211
lhand -25.962 -21.9502
lfingers 7.12502
lthumb 0.582443 8.02874
rfemur -7.81619 0.333871 32.2109
rtibia 24.0702
rfoot -21.6468 -4.32832
rtoes 42.357
lfemur -9.66778 2.5404 -11.2652
ltibia 67.1273
lfoot -3.80093 0.285515
ltoes -11.509
1153
root -16.55 16.1389 11.7618 -530.11 -49.623 166.784
lowerback 9.04326 0.773619 -5.09308
upperback 3.52139 0.439097 0.658734
thorax -1.45678 0.112351 3.50611
lowerneck -22.0924 -4.96766 -0.511438
upperneck 26.4575 -11.625 11.2395
head 13.4455 -3.97422 2.26915
rclavicle -5.64548e-014 2.54444e-014
rhumerus -45.8814 11.8606 -90.243
rradius 65.3167
rwrist -14.9094
rhand -12.3615 -24.665
rfingers 7.12502
rthumb 13.7087 -54.1935
lclavicle -5.64548e-014 2.54444e-014
lhumerus -44.5681 -26.6495 96.0741
lradius 41.3951
lwrist 4.66841
lhand -24.8543 -21.7038
lfingers 7.12502
lthumb 1.65229 8.26955
rfemur -5.72527 1.48524 33.028
rtibia 22.538
rfoot -21.3782 -2.71785
rtoes 42.2344
lfemur -11.1531 2.45238 -10.5967
ltibia 66.3713
lfoot -4.8726 0.382619
ltoes -11.2045
1154
root -16.7204 16.2001 11.657 -531.373 -46.8949 168.262
lowerback 8.98749 0.872501 -4.76731
upperback 3.4288 0.598891 0.576232
thorax -1.53519 0.19881 3.21987
lowerneck -21.9023 -4.72227 -0.368621
upperneck 26.1331 -11.4741 11.7338
head 13.2987 -3.87171 2.46078
rclavicle 9.44227e-014 -2.46493e-014
rhumerus -45.5226 14.4373 -91.8457
rradius 68.7953
rwrist -14.4584
rhand -11.2777 -23.0296
rfingers 7.12502
rthumb 14.753 -52.4845
lclavicle 9.44227e-014 -2.46493e-014
lhumerus -45.3441 -23.9142 95.4564
lradius 37.7635
lwrist 2.85979
lhand -23.3905 -21.3419
lfingers 7.12502
lthumb 3.06594 8.61577
rfemur -3.62427 2.62491 33.636
rtibia 21.0505
rfoot -20.9539 -1.026
rtoes 41.7607
lfemur -12.4291 2.47269 -10.0625
ltibia 65.3086
lfoot -5.85138 0.713257
ltoes -10.2768
1155
root -16.8861 16.2585 11.5524 -532.908 -44.0364 170.225
lowerback 8.95666 1.04269 -3.9346
upperback 3.30092 0.900009 0.597798
thorax -1.66835 0.360003 2.741
lowerneck -21.822 -4.29968 0.261036
upperneck 26.1952 -11.0666 11.5336
head 13.2259 -3.67156 2.35387
rclavicle -1.35174e-014 -1.19271e-014
rhumerus -45.5361 17.1066 -93.3384
rradius 72.5918
rwrist -14.2452
rhand -12.0904 -23.3378
rfingers 7.12502
rthumb 13.9699 -52.8484
lclavicle -1.35174e-014 -1.19271e-014
lhumerus -46.2675 -21.4982 94.8352
lradius 34.3927
lwrist 1.01848
lhand -22.0855 -21.6247
lfingers 7.12502
lthumb 4.32625 8.31114
rfemur -1.68135 3.78129 34.7854
rtibia 19.8541
rfoot -20.6092 0.57515
rtoes 41.1703
lfemur -13.6632 2.9113 -8.88254
ltibia 64.114
lfoot -6.82227 1.48472
ltoes -12.5833
1156
root -17.0697 16.3044 11.4541 -533.802 -40.9735 171.36
lowerback 8.81016 1.4206 -3.24568
upperback 3.16282 1.46926 0.520359
thorax -1.75637 0.653172 2.21391
lowerneck -21.6301 -4.13891 0.306782
upperneck 26.3141 -10.8845 11.4938
head 13.2157 -3.60774 2.3677
rclavicle -2.18663e-015 -2.38542e-015
rhumerus -45.4727 19.2643 -94.2922
rradius 76.2263
rwrist -14.1577
rhand -11.8955 -24.0832
rfingers 7.12502
rthumb 14.1577 -53.5808
lclavicle -2.18663e-015 -2.38542e-015
lhumerus -47.2075 -19.2178 94.3477
lradius 31.1685
lwrist -1.55164
lhand -21.6321 -22.3125
lfingers 7.12502
lthumb 4.76406 7.61396
rfemur 0.309484 4.62181 35.1686
rtibia 18.7096
rfoot -21.811 2.77207
rtoes 45.5059
lfemur -14.7572 3.4406 -8.27438
ltibia 62.8171
lfoot -8.06916 2.45866
ltoes -12.5132
1157
root -17.2593 16.3431 11.3623 -534.467 -37.971 172.564
lowerback 8.52069 1.58278 -2.44588
upperback 2.99743 1.76647 0.440304
thorax -1.76086 0.81017 1.65476
lowerneck -21.8173 -3.71608 1.08845
upperneck 26.817 -10.4978 10.9124
head 13.3499 -3.41738 2.08532
rclavicle -1.05356e-014 2.38542e-014
rhumerus -45.0545 21.7549 -95.5156
rradius 79.4528
rwrist -14.3071
rhand -11.9345 -24.6229
rfingers 7.12502
rthumb 14.1201 -54.1232
lclavicle -1.05356e-014 2.38542e-014
lhumerus -48.1834 -16.536 93.3853
lradius 28.3764
lwrist -4.89825
lhand -21.2711 -22.5912
lfingers 7.12502
lthumb 5.11261 7.32708
rfemur 1.90686 5.21713 35.5584
rtibia 17.6778
rfoot -20.0771 4.81558
rtoes 42.8698
lfemur -15.9238 3.43033 -7.60528
ltibia 61.1743
lfoot -9.39581 3.7211
ltoes -9.95481
1158
root -17.419 16.3852 11.2563 -535.044 -33.7613 173.472
lowerback 8.46691 2.19851 -2.51244
upperback 2.89633 2.58088 0.407838
thorax -1.87514 1.21905 1.57462
lowerneck -21.7773 -3.46875 1.36426
upperneck 26.7631 -10.2166 10.8085
head 13.2795 -3.2942 2.04821
rclavicle -1.10922e-013 1.82882e-014
rhumerus -44.5319 24.3793 -96.6475
rradius 82.5133
rwrist -14.7388
rhand -12.8225 -24.0901
rfingers 7.12502
rthumb 13.2643 -53.648
lclavicle -1.10922e-013 1.82882e-014
lhumerus -49.1661 -13.7187 92.2075
lradius 26.0267
lwrist -8.47163
lhand -20.5548 -22.9766
lfingers 7.12502
lthumb 5.80423 6.9239
rfemur 3.52175 6.41547 35.7643
rtibia 17.2769
rfoot -20.1417 7.11622
rtoes 41.0549
lfemur -16.3519 5.0923 -6.80027
ltibia 59.1804
lfoot -10.2937 4.91088
ltoes -11.1099
1159
root -17.6243 16.4247 11.1849 -534.799 -31.6836 173.478
lowerback 8.28399 2.03236 -2.07687
upperback 2.76378 2.39462 0.00091671
thorax -1.86755 1.13128 0.933932
lowerneck -22.0637 -3.0027 2.4413
upperneck 26.9765 -9.74855 10.0669
head 13.295 -3.05997 1.6637
rclavicle 5.02925e-014 -2.22639e-014
rhumerus -43.933 26.891 -97.6131
rradius 85.5353
rwrist -15.4236
rhand -13.4328 -23.4025
rfingers 7.12502
rthumb 12.676 -52.9978
lclavicle 5.02925e-014 -2.22639e-014
lhumerus -50.1443 -11.1521 90.7837
lradius 24.1603
lwrist -11.6624
lhand -19.7111 -23.3709
lfingers 7.12502
lthumb 6.61873 6.50562
rfemur 4.60615 6.43536 34.8548
rtibia 16.7933
rfoot -20.2318 8.53069
rtoes 38.9593
lfemur -18.2139 4.74361 -7.21457
ltibia 57.8828
lfoot -10.91 6.62843
ltoes -15.1231
1160
root -17.8182 16.4599 11.0829 -534.955 -28.5784 173.991
lowerback 8.05618 2.30227 -1.72515
upperback 2.66556 2.78468 -0.212868
thorax -1.82837 1.32872 0.484816
lowerneck -21.8844 -2.65058 2.63022
upperneck 26.6346 -9.37467 10.3841
head 13.115 -2.87098 1.81827
rclavicle -1.17283e-013 -4.77083e-015
rhumerus -43.4141 29.1777 -98.274
rradius 88.4969
rwrist -16.2218
rhand -13.9358 -23.1762
rfingers 7.12502
rthumb 12.1911 -52.8009
lclavicle -1.17283e-013 -4.77083e-015
lhumerus -51.4334 -8.99828 89.6601
lradius 22.8184
lwrist -14.4158
lhand -20.682 -24.4335
lfingers 7.12502
lthumb 5.68137 5.47032
rfemur 6.07575 7.09686 34.4016
rtibia 15.3758
rfoot -18.8567 11.2319
rtoes 41.108
lfemur -19.074 5.49636 -6.85197
ltibia 55.9236
lfoot -11.568 8.46968
ltoes -17.3908
1161
root -17.9952 16.4874 10.9818 -535.3 -25.6242 174.832
lowerback 8.06699 2.533 -1.24851
upperback 2.51621 3.13404 -0.191527
thorax -1.97181 1.50688 0.202209
lowerneck -22.0663 -2.29736 3.12147
upperneck 26.914 -8.97037 9.93444
head 13.1961 -2.68848 1.63608
rclavicle 4.27387e-015 -7.95139e-016
rhumerus -42.6923 31.3939 -98.6011
rradius 91.0919
rwrist -16.9256
rhand -14.0937 -23.1056
rfingers 7.12502
rthumb 12.0388 -52.7393
lclavicle 4.27387e-015 -7.95139e-016
lhumerus -53.0577 -7.00929 88.8591
lradius 21.9853
lwrist -16.7377
lhand -21.3 -25.0486
lfingers 7.12502
lthumb 5.08467 4.87037
rfemur 7.2304 8.06368 34.5362
rtibia 15.0482
rfoot -18.6269 13.0365
rtoes 41.946
lfemur -19.7142 5.80204 -5.76476
ltibia 53.5386
lfoot -13.0349 9.54428
ltoes -9.47318
1162
root -18.1671 16.5043 10.8783 -535.439 -22.6367 175.4
lowerback 8.04505 2.81394 -1.02612
upperback 2.36813 3.52873 -0.24563
thorax -2.10104 1.70651 -0.0194731
lowerneck -22.0776 -2.14091 3.13332
upperneck 26.829 -8.8542 10.1728
head 13.1765 -2.62181 1.74348
rclavicle -3.77691e-015 1.11319e-014
rhumerus -41.6286 32.8361 -98.7365
rradius 93.4913
rwrist -17.1548
rhand -13.192 -23.2732
rfingers 7.12502
rthumb 12.9081 -52.854
lclavicle -3.77691e-015 1.11319e-014
lhumerus -54.8921 -5.93401 88.6911
lradius 21.7015
lwrist -17.5
lhand -21.656 -25.3326
lfingers 7.12502
lthumb 4.74093 4.59433
rfemur 8.16629 8.74542 34.3851
rtibia 14.579
rfoot -18.1847 14.7862
rtoes 41.9504
lfemur -20.2083 6.25399 -4.95863
ltibia 50.8884
lfoot -13.9999 11.1843
ltoes -8.51622
